<mxfile host="app.diagrams.net" modified="2024-02-12T19:12:20.990Z" agent="Mozilla/5.0 (Macintosh; Intel Mac OS X 10_15_7) AppleWebKit/537.36 (KHTML, like Gecko) Chrome/121.0.0.0 Safari/537.36" etag="rcNXytG_jOzZ_meyOYzK" version="23.1.2" type="github">
  <diagram name="Page-1" id="ezkMq1eAuabsY91KZPgm">
    <mxGraphModel dx="1854" dy="668" grid="1" gridSize="10" guides="1" tooltips="1" connect="1" arrows="1" fold="1" page="1" pageScale="1" pageWidth="850" pageHeight="1100" math="0" shadow="0">
      <root>
        <mxCell id="0" />
        <mxCell id="1" parent="0" />
        <mxCell id="upiZ4ITVvF9U6T1kBbme-1" value="Scheduler rest service" style="whiteSpace=wrap;html=1;aspect=fixed;" vertex="1" parent="1">
          <mxGeometry x="90" y="250" width="80" height="80" as="geometry" />
        </mxCell>
        <mxCell id="upiZ4ITVvF9U6T1kBbme-2" value="" style="shape=cylinder3;whiteSpace=wrap;html=1;boundedLbl=1;backgroundOutline=1;size=15;" vertex="1" parent="1">
          <mxGeometry x="200" y="410" width="60" height="80" as="geometry" />
        </mxCell>
        <mxCell id="upiZ4ITVvF9U6T1kBbme-3" value="" style="endArrow=classic;html=1;rounded=0;exitX=0.75;exitY=1;exitDx=0;exitDy=0;entryX=0.145;entryY=0;entryDx=0;entryDy=4.35;entryPerimeter=0;" edge="1" parent="1" source="upiZ4ITVvF9U6T1kBbme-1" target="upiZ4ITVvF9U6T1kBbme-2">
          <mxGeometry width="50" height="50" relative="1" as="geometry">
            <mxPoint x="400" y="360" as="sourcePoint" />
            <mxPoint x="450" y="310" as="targetPoint" />
          </mxGeometry>
        </mxCell>
        <mxCell id="upiZ4ITVvF9U6T1kBbme-4" value="Mongo" style="text;html=1;strokeColor=none;fillColor=none;align=center;verticalAlign=middle;whiteSpace=wrap;rounded=0;" vertex="1" parent="1">
          <mxGeometry x="200" y="450" width="60" height="30" as="geometry" />
        </mxCell>
        <mxCell id="upiZ4ITVvF9U6T1kBbme-5" value="1. Scheduler request makes CREATED status entries" style="text;html=1;strokeColor=none;fillColor=none;align=center;verticalAlign=middle;whiteSpace=wrap;rounded=0;" vertex="1" parent="1">
          <mxGeometry x="30" y="380" width="120" height="60" as="geometry" />
        </mxCell>
        <mxCell id="upiZ4ITVvF9U6T1kBbme-6" value="ScheduledItem&lt;br&gt;&lt;div&gt;scheduledItemId: string (ObjectId)&lt;/div&gt;&lt;div&gt;&amp;nbsp; scheduledRecordId: string (ObjectId) //&amp;nbsp;&amp;nbsp;&lt;span style=&quot;background-color: initial;&quot;&gt;scheduledRecordId is a unique id for internal purposes&lt;/span&gt;&lt;/div&gt;&lt;div&gt;&amp;nbsp; ziTenantId: number&lt;/div&gt;&lt;div&gt;&amp;nbsp; ziUserId: number&lt;/div&gt;&lt;div&gt;&amp;nbsp; scheduledAt: Date // ( GMT )&lt;/div&gt;&lt;div&gt;&amp;nbsp; taskId?: string // External reference to GCP Task&lt;/div&gt;&lt;div&gt;&amp;nbsp; namespace: string // namespace of the scheduler&lt;/div&gt;&lt;div&gt;&amp;nbsp; payload: any // JSON payload&lt;/div&gt;&lt;div&gt;&amp;nbsp; status: Enum // CREATED / SCHEDULED / SCHEDULING_DELAYED / EXECUTED&lt;/div&gt;&lt;div&gt;&amp;nbsp; // audit fields&lt;/div&gt;&lt;div&gt;&amp;nbsp; createdAt: Date&lt;/div&gt;&lt;div&gt;&amp;nbsp; updatedAt: Date&lt;/div&gt;&lt;div&gt;&amp;nbsp; createdBy: number&lt;/div&gt;&lt;div&gt;&amp;nbsp; updatedBy: number&lt;/div&gt;" style="text;html=1;strokeColor=none;fillColor=none;align=center;verticalAlign=middle;whiteSpace=wrap;rounded=0;" vertex="1" parent="1">
          <mxGeometry x="-35" y="510" width="530" height="240" as="geometry" />
        </mxCell>
        <mxCell id="upiZ4ITVvF9U6T1kBbme-7" value="CDC on creation of entries. If&amp;nbsp;scheduledAt &amp;lt; 30" style="text;html=1;strokeColor=none;fillColor=none;align=left;verticalAlign=middle;whiteSpace=wrap;rounded=0;" vertex="1" parent="1">
          <mxGeometry x="290" y="460" width="260" height="30" as="geometry" />
        </mxCell>
        <mxCell id="upiZ4ITVvF9U6T1kBbme-10" value="Text" style="text;html=1;strokeColor=none;fillColor=none;align=center;verticalAlign=middle;whiteSpace=wrap;rounded=0;" vertex="1" parent="1">
          <mxGeometry x="570" y="430" width="60" height="30" as="geometry" />
        </mxCell>
      </root>
    </mxGraphModel>
  </diagram>
</mxfile>
